/* XPM */
static char * close_pressed_xpm[] = {
"7 17 3 1",
" 	c #000000",
".	c #FFFFFF",
"+	c #EF2929",
"       ",
"       ",
"       ",
"       ",
"       ",
".......",
".+++++.",
".+++++.",
".+++++.",
".+++++.",
".+++++.",
".......",
"       ",
"       ",
"       ",
"       ",
"       "};
