/* XPM */
static char * menu_pressed_xpm[] = {
"15 17 4 1",
" 	c #000000",
".	c #EF2929",
"+	c #FCAF3E",
"@	c #FCE94F",
"               ",
"               ",
"               ",
"               ",
"               ",
"               ",
"               ",
"...   +++   @@@",
"...   +++   @@@",
"...   +++   @@@",
"               ",
"               ",
"               ",
"               ",
"               ",
"               ",
"               "};
