/* XPM */
static char * menu_inactive_xpm[] = {
"15 17 4 1",
" 	c #000000",
".	c #2E3436",
"+	c #555753",
"@	c #888A85",
"               ",
"               ",
"               ",
"               ",
"               ",
"               ",
"               ",
"...   +++   @@@",
"...   +++   @@@",
"...   +++   @@@",
"               ",
"               ",
"               ",
"               ",
"               ",
"               ",
"               "};
