/* XPM */
static char * menu_active_xpm[] = {
"15 17 4 1",
" 	c #000000",
".	c #A40000",
"+	c #F57900",
"@	c #EDD400",
"               ",
"               ",
"               ",
"               ",
"               ",
"               ",
"               ",
"...   +++   @@@",
"...   +++   @@@",
"...   +++   @@@",
"               ",
"               ",
"               ",
"               ",
"               ",
"               ",
"               "};
